<svg xmlns="http://www.w3.org/2000/svg" width="360" height="301">
    <defs>
        <style>
            .cls-1,.cls-3{fill:#fff}.cls-1{fill-rule:evenodd}
        </style>
    </defs>
    <path d="M21.638 229.412h1.185l27.263 65.431h14.891l27.189-65.431h1.185V301h20.743V193.951h-26.3l-29.633 71.96h-1.333l-29.559-71.96H.894V301h20.744v-71.588zM209.884 301v-18.695h14v-18.62h-14v-69.734h-31.337q-29.782 44.883-42.3 68.547v19.807h52.3V301h21.336zm-22-89.615h1.186v52.968h-32.748v-1.187q14.447-26.187 31.559-51.781zm78.825 18.027h1.186l27.262 65.431h14.891l27.189-65.431h1.185V301h20.743V193.951h-26.3l-29.634 71.96H301.9l-29.559-71.96h-26.378V301h20.743v-71.588z" class="cls-1"/>
    <path fill="red" fill-rule="evenodd" d="M214.148 145.112a16.3 16.3 0 1 1-23.061-.026 16.345 16.345 0 0 1 23.061.026z"/>
    <path d="M290.736 165.412a12.191 12.191 0 0 1-3.571-8.672 84.963 84.963 0 0 0-84.63-84.746 12.233 12.233 0 0 1-.027-24.466c60.1.068 109.023 49.055 109.09 109.24a12.224 12.224 0 0 1-20.862 8.644zm-46.743-.085a12.191 12.191 0 0 1-3.57-8.672 37.936 37.936 0 0 0-37.8-37.854 12.233 12.233 0 0 1-.027-24.466 62.385 62.385 0 0 1 62.23 62.38 12.178 12.178 0 0 1-20.833 8.612zm94.237.139a12.193 12.193 0 0 1-3.571-8.672c-.114-72.909-59.368-132.244-132.144-132.326A12.233 12.233 0 0 1 202.487 0a157 157 0 0 1 156.638 156.854 12.215 12.215 0 0 1-12.2 12.219 12.419 12.419 0 0 1-8.695-3.607z" class="cls-1"/>
    <rect width="27.563" height="165.469" x="143.781" y=".031" class="cls-3" rx="13.775" ry="13.775"/>
    <rect width="27.531" height="130.375" x="96.219" y="35.125" class="cls-3" rx="13.766" ry="13.766"/>
    <rect width="27.531" height="90.281" x="48.656" y="75.219" class="cls-3" rx="13.766" ry="13.766"/>
    <rect width="27.531" height="50.125" x="1.063" y="115.375" class="cls-3" rx="13.766" ry="13.766"/>
</svg>
